<?xml version="1.0" encoding="UTF-8" standalone="no"?>
<!DOCTYPE svg PUBLIC "-//W3C//DTD SVG 1.1//EN" "http://www.w3.org/Graphics/SVG/1.1/DTD/svg11.dtd">
<svg width="100%" height="100%" viewBox="0 0 384 384" version="1.1" xmlns="http://www.w3.org/2000/svg" xmlns:xlink="http://www.w3.org/1999/xlink" xml:space="preserve" xmlns:serif="http://www.serif.com/" style="fill-rule:evenodd;clip-rule:evenodd;stroke-linejoin:round;stroke-miterlimit:2;">
    <g id="surface113544818">
        <path d="M128,48C83.887,48 48,83.887 48,128L48,256C48,300.113 83.887,336 128,336L256,336C300.113,336 336,300.113 336,256L336,128C336,83.887 300.113,48 256,48L128,48ZM128,80L256,80C282.465,80 304,101.535 304,128L304,256C304,282.465 282.465,304 256,304L128,304C101.535,304 80,282.465 80,256L80,128C80,101.535 101.535,80 128,80ZM272,96C263.164,96 256,103.164 256,112C256,120.836 263.164,128 272,128C280.836,128 288,120.836 288,112C288,103.164 280.836,96 272,96ZM192,112C147.887,112 112,147.887 112,192C112,236.113 147.887,272 192,272C236.113,272 272,236.113 272,192C272,147.887 236.113,112 192,112ZM192,144C218.465,144 240,165.535 240,192C240,218.465 218.465,240 192,240C165.535,240 144,218.465 144,192C144,165.535 165.535,144 192,144Z" style="fill-rule:nonzero;"/>
    </g>
</svg>
