<?xml version="1.0" encoding="UTF-8"?>
<svg xmlns="http://www.w3.org/2000/svg" xmlns:xlink="http://www.w3.org/1999/xlink" viewBox="0 0 384 384" width="384px" height="384px">
<g id="surface113616093">
<path style=" stroke:none;fill-rule:nonzero;fill:rgb(100%,100%,100%);fill-opacity:1;" d="M 80 48 C 62.351562 48 48 62.351562 48 80 L 48 304 C 48 321.648438 62.351562 336 80 336 L 304 336 C 321.648438 336 336 321.648438 336 304 L 336 80 C 336 62.351562 321.648438 48 304 48 Z M 80 80 L 304 80 L 304.03125 304 L 230.625 304 L 230.625 240.5625 L 268.46875 240.5625 L 274.09375 196.96875 L 230.875 196.96875 L 230.875 169.1875 C 230.875 156.578125 234.390625 148.0625 252.46875 148.0625 L 275.3125 148.0625 L 275.3125 109.15625 C 264.191406 108.019531 253.027344 107.46875 241.84375 107.5 C 208.660156 107.5 185.9375 127.753906 185.9375 164.9375 L 185.9375 197.03125 L 148.4375 197.03125 L 148.4375 240.625 L 185.9375 240.625 L 185.9375 304 L 80 304 Z M 80 80 "/>
</g>
</svg>
